REPACK with correct bitrate!

Enjoy and seed it, sailors!

"-h65", a new name for an old friend of yours!
Yeah, baby!
@helder1965

------------------------------------------

General
Complete name                            : Sinbad.S01E10.REPACK.WEB-DL.x264-h65.mp4
Format                                   : MPEG-4
Format profile                           : Base Media
Codec ID                                 : isom
File size                                : 291 MiB
Duration                                 : 43mn 15s
Overall bit rate mode                    : Variable
Overall bit rate                         : 941 Kbps
Encoded date                             : UTC 2012-09-11 18:12:26

Video
ID                                       : 1
Format                                   : AVC
Format/Info                              : Advanced Video Codec
Format profile                           : High@L3.1
Format settings, CABAC                   : Yes
Format settings, ReFrames                : 2 frames
Codec ID                                 : avc1
Codec ID/Info                            : Advanced Video Coding
Duration                                 : 43mn 15s
Bit rate                                 : 746 Kbps
Maximum bit rate                         : 6 042 Kbps
Width                                    : 640 pixels
Height                                   : 480 pixels
Display aspect ratio                     : 16:9
Frame rate mode                          : Constant
Frame rate                               : 25.000 fps
Color space                              : YUV
Chroma subsampling                       : 4:2:0
Bit depth                                : 8 bits
Scan type                                : Progressive
Bits/(Pixel*Frame)                       : 0.097
Stream size                              : 231 MiB (79%)
Writing library                          : x264 core 125 r2200 999b753

Audio
ID                                       : 2
Format                                   : AAC
Format/Info                              : Advanced Audio Codec
Format profile                           : LC
Codec ID                                 : 40
Duration                                 : 43mn 15s
Bit rate mode                            : Variable
Bit rate                                 : 192 Kbps
Maximum bit rate                         : 199 Kbps
Channel(s)                               : 2 channels
Channel positions                        : Front: L R
Sampling rate                            : 48.0 KHz
Compression mode                         : Lossy
Stream size                              : 59.4 MiB (20%)